<svg xmlns="http://www.w3.org/2000/svg" version="1.1" width="583px" height="948px" style="shape-rendering:geometricPrecision; text-rendering:geometricPrecision; image-rendering:optimizeQuality; fill-rule:evenodd; clip-rule:evenodd" xmlns:xlink="http://www.w3.org/1999/xlink">
  <!-- Dente 18 -->
  <g id="tooth-18" class="tooth" data-number="18">
    <path style="opacity:1" fill="#fafafa" stroke="#333" stroke-width="2" d="M 50,50 C 80,50 100,70 100,100 C 100,130 80,150 50,150 C 20,150 0,130 0,100 C 0,70 20,50 50,50 Z"/>
    <text x="50" y="105" text-anchor="middle" font-size="12" fill="#333">18</text>
  </g>
  
  <!-- Dente 17 -->
  <g id="tooth-17" class="tooth" data-number="17">
    <path style="opacity:1" fill="#fafafa" stroke="#333" stroke-width="2" d="M 120,50 C 150,50 170,70 170,100 C 170,130 150,150 120,150 C 90,150 70,130 70,100 C 70,70 90,50 120,50 Z"/>
    <text x="120" y="105" text-anchor="middle" font-size="12" fill="#333">17</text>
  </g>
  
  <!-- Dente 16 -->
  <g id="tooth-16" class="tooth" data-number="16">
    <path style="opacity:1" fill="#fafafa" stroke="#333" stroke-width="2" d="M 190,50 C 220,50 240,70 240,100 C 240,130 220,150 190,150 C 160,150 140,130 140,100 C 140,70 160,50 190,50 Z"/>
    <text x="190" y="105" text-anchor="middle" font-size="12" fill="#333">16</text>
  </g>
  
  <!-- Dente 15 -->
  <g id="tooth-15" class="tooth" data-number="15">
    <path style="opacity:1" fill="#fafafa" stroke="#333" stroke-width="2" d="M 260,50 C 285,50 300,70 300,100 C 300,130 285,150 260,150 C 235,150 220,130 220,100 C 220,70 235,50 260,50 Z"/>
    <text x="260" y="105" text-anchor="middle" font-size="12" fill="#333">15</text>
  </g>
  
  <!-- Dente 14 -->
  <g id="tooth-14" class="tooth" data-number="14">
    <path style="opacity:1" fill="#fafafa" stroke="#333" stroke-width="2" d="M 320,50 C 345,50 360,70 360,100 C 360,130 345,150 320,150 C 295,150 280,130 280,100 C 280,70 295,50 320,50 Z"/>
    <text x="320" y="105" text-anchor="middle" font-size="12" fill="#333">14</text>
  </g>
  
  <!-- Dente 13 -->
  <g id="tooth-13" class="tooth" data-number="13">
    <path style="opacity:1" fill="#fafafa" stroke="#333" stroke-width="2" d="M 380,50 C 405,50 420,70 420,100 C 420,130 405,150 380,150 C 355,150 340,130 340,100 C 340,70 355,50 380,50 Z"/>
    <text x="380" y="105" text-anchor="middle" font-size="12" fill="#333">13</text>
  </g>
  
  <!-- Dente 12 -->
  <g id="tooth-12" class="tooth" data-number="12">
    <path style="opacity:1" fill="#fafafa" stroke="#333" stroke-width="2" d="M 440,50 C 465,50 480,70 480,100 C 480,130 465,150 440,150 C 415,150 400,130 400,100 C 400,70 415,50 440,50 Z"/>
    <text x="440" y="105" text-anchor="middle" font-size="12" fill="#333">12</text>
  </g>
  
  <!-- Dente 11 -->
  <g id="tooth-11" class="tooth" data-number="11">
    <path style="opacity:1" fill="#fafafa" stroke="#333" stroke-width="2" d="M 500,50 C 525,50 540,70 540,100 C 540,130 525,150 500,150 C 475,150 460,130 460,100 C 460,70 475,50 500,50 Z"/>
    <text x="500" y="105" text-anchor="middle" font-size="12" fill="#333">11</text>
  </g>
  
  <!-- Dente 21 -->
  <g id="tooth-21" class="tooth" data-number="21">
    <path style="opacity:1" fill="#fafafa" stroke="#333" stroke-width="2" d="M 50,200 C 75,200 90,220 90,250 C 90,280 75,300 50,300 C 25,300 10,280 10,250 C 10,220 25,200 50,200 Z"/>
    <text x="50" y="255" text-anchor="middle" font-size="12" fill="#333">21</text>
  </g>
  
  <!-- Dente 22 -->
  <g id="tooth-22" class="tooth" data-number="22">
    <path style="opacity:1" fill="#fafafa" stroke="#333" stroke-width="2" d="M 110,200 C 135,200 150,220 150,250 C 150,280 135,300 110,300 C 85,300 70,280 70,250 C 70,220 85,200 110,200 Z"/>
    <text x="110" y="255" text-anchor="middle" font-size="12" fill="#333">22</text>
  </g>
  
  <!-- Dente 23 -->
  <g id="tooth-23" class="tooth" data-number="23">
    <path style="opacity:1" fill="#fafafa" stroke="#333" stroke-width="2" d="M 170,200 C 195,200 210,220 210,250 C 210,280 195,300 170,300 C 145,300 130,280 130,250 C 130,220 145,200 170,200 Z"/>
    <text x="170" y="255" text-anchor="middle" font-size="12" fill="#333">23</text>
  </g>
  
  <!-- Dente 24 -->
  <g id="tooth-24" class="tooth" data-number="24">
    <path style="opacity:1" fill="#fafafa" stroke="#333" stroke-width="2" d="M 230,200 C 255,200 270,220 270,250 C 270,280 255,300 230,300 C 205,300 190,280 190,250 C 190,220 205,200 230,200 Z"/>
    <text x="230" y="255" text-anchor="middle" font-size="12" fill="#333">24</text>
  </g>
  
  <!-- Dente 25 -->
  <g id="tooth-25" class="tooth" data-number="25">
    <path style="opacity:1" fill="#fafafa" stroke="#333" stroke-width="2" d="M 290,200 C 315,200 330,220 330,250 C 330,280 315,300 290,300 C 265,300 250,280 250,250 C 250,220 265,200 290,200 Z"/>
    <text x="290" y="255" text-anchor="middle" font-size="12" fill="#333">25</text>
  </g>
  
  <!-- Dente 26 -->
  <g id="tooth-26" class="tooth" data-number="26">
    <path style="opacity:1" fill="#fafafa" stroke="#333" stroke-width="2" d="M 350,200 C 380,200 400,220 400,250 C 400,280 380,300 350,300 C 320,300 300,280 300,250 C 300,220 320,200 350,200 Z"/>
    <text x="350" y="255" text-anchor="middle" font-size="12" fill="#333">26</text>
  </g>
  
  <!-- Dente 27 -->
  <g id="tooth-27" class="tooth" data-number="27">
    <path style="opacity:1" fill="#fafafa" stroke="#333" stroke-width="2" d="M 420,200 C 450,200 470,220 470,250 C 470,280 450,300 420,300 C 390,300 370,280 370,250 C 370,220 390,200 420,200 Z"/>
    <text x="420" y="255" text-anchor="middle" font-size="12" fill="#333">27</text>
  </g>
  
  <!-- Dente 28 -->
  <g id="tooth-28" class="tooth" data-number="28">
    <path style="opacity:1" fill="#fafafa" stroke="#333" stroke-width="2" d="M 490,200 C 520,200 540,220 540,250 C 540,280 520,300 490,300 C 460,300 440,280 440,250 C 440,220 460,200 490,200 Z"/>
    <text x="490" y="255" text-anchor="middle" font-size="12" fill="#333">28</text>
  </g>
  
  <!-- Dentes inferiores -->
  
  <!-- Dente 48 -->
  <g id="tooth-48" class="tooth" data-number="48">
    <path style="opacity:1" fill="#fafafa" stroke="#333" stroke-width="2" d="M 50,500 C 80,500 100,520 100,550 C 100,580 80,600 50,600 C 20,600 0,580 0,550 C 0,520 20,500 50,500 Z"/>
    <text x="50" y="555" text-anchor="middle" font-size="12" fill="#333">48</text>
  </g>
  
  <!-- Dente 47 -->
  <g id="tooth-47" class="tooth" data-number="47">
    <path style="opacity:1" fill="#fafafa" stroke="#333" stroke-width="2" d="M 120,500 C 150,500 170,520 170,550 C 170,580 150,600 120,600 C 90,600 70,580 70,550 C 70,520 90,500 120,500 Z"/>
    <text x="120" y="555" text-anchor="middle" font-size="12" fill="#333">47</text>
  </g>
  
  <!-- Dente 46 -->
  <g id="tooth-46" class="tooth" data-number="46">
    <path style="opacity:1" fill="#fafafa" stroke="#333" stroke-width="2" d="M 190,500 C 220,500 240,520 240,550 C 240,580 220,600 190,600 C 160,600 140,580 140,550 C 140,520 160,500 190,500 Z"/>
    <text x="190" y="555" text-anchor="middle" font-size="12" fill="#333">46</text>
  </g>
  
  <!-- Dente 45 -->
  <g id="tooth-45" class="tooth" data-number="45">
    <path style="opacity:1" fill="#fafafa" stroke="#333" stroke-width="2" d="M 260,500 C 285,500 300,520 300,550 C 300,580 285,600 260,600 C 235,600 220,580 220,550 C 220,520 235,500 260,500 Z"/>
    <text x="260" y="555" text-anchor="middle" font-size="12" fill="#333">45</text>
  </g>
  
  <!-- Dente 44 -->
  <g id="tooth-44" class="tooth" data-number="44">
    <path style="opacity:1" fill="#fafafa" stroke="#333" stroke-width="2" d="M 320,500 C 345,500 360,520 360,550 C 360,580 345,600 320,600 C 295,600 280,580 280,550 C 280,520 295,500 320,500 Z"/>
    <text x="320" y="555" text-anchor="middle" font-size="12" fill="#333">44</text>
  </g>
  
  <!-- Dente 43 -->
  <g id="tooth-43" class="tooth" data-number="43">
    <path style="opacity:1" fill="#fafafa" stroke="#333" stroke-width="2" d="M 380,500 C 405,500 420,520 420,550 C 420,580 405,600 380,600 C 355,600 340,580 340,550 C 340,520 355,500 380,500 Z"/>
    <text x="380" y="555" text-anchor="middle" font-size="12" fill="#333">43</text>
  </g>
  
  <!-- Dente 42 -->
  <g id="tooth-42" class="tooth" data-number="42">
    <path style="opacity:1" fill="#fafafa" stroke="#333" stroke-width="2" d="M 440,500 C 465,500 480,520 480,550 C 480,580 465,600 440,600 C 415,600 400,580 400,550 C 400,520 415,500 440,500 Z"/>
    <text x="440" y="555" text-anchor="middle" font-size="12" fill="#333">42</text>
  </g>
  
  <!-- Dente 41 -->
  <g id="tooth-41" class="tooth" data-number="41">
    <path style="opacity:1" fill="#fafafa" stroke="#333" stroke-width="2" d="M 500,500 C 525,500 540,520 540,550 C 540,580 525,600 500,600 C 475,600 460,580 460,550 C 460,520 475,500 500,500 Z"/>
    <text x="500" y="555" text-anchor="middle" font-size="12" fill="#333">41</text>
  </g>
  
  <!-- Dente 31 -->
  <g id="tooth-31" class="tooth" data-number="31">
    <path style="opacity:1" fill="#fafafa" stroke="#333" stroke-width="2" d="M 50,650 C 75,650 90,670 90,700 C 90,730 75,750 50,750 C 25,750 10,730 10,700 C 10,670 25,650 50,650 Z"/>
    <text x="50" y="705" text-anchor="middle" font-size="12" fill="#333">31</text>
  </g>
  
  <!-- Dente 32 -->
  <g id="tooth-32" class="tooth" data-number="32">
    <path style="opacity:1" fill="#fafafa" stroke="#333" stroke-width="2" d="M 110,650 C 135,650 150,670 150,700 C 150,730 135,750 110,750 C 85,750 70,730 70,700 C 70,670 85,650 110,650 Z"/>
    <text x="110" y="705" text-anchor="middle" font-size="12" fill="#333">32</text>
  </g>
  
  <!-- Dente 33 -->
  <g id="tooth-33" class="tooth" data-number="33">
    <path style="opacity:1" fill="#fafafa" stroke="#333" stroke-width="2" d="M 170,650 C 195,650 210,670 210,700 C 210,730 195,750 170,750 C 145,750 130,730 130,700 C 130,670 145,650 170,650 Z"/>
    <text x="170" y="705" text-anchor="middle" font-size="12" fill="#333">33</text>
  </g>
  
  <!-- Dente 34 -->
  <g id="tooth-34" class="tooth" data-number="34">
    <path style="opacity:1" fill="#fafafa" stroke="#333" stroke-width="2" d="M 230,650 C 255,650 270,670 270,700 C 270,730 255,750 230,750 C 205,750 190,730 190,700 C 190,670 205,650 230,650 Z"/>
    <text x="230" y="705" text-anchor="middle" font-size="12" fill="#333">34</text>
  </g>
  
  <!-- Dente 35 -->
  <g id="tooth-35" class="tooth" data-number="35">
    <path style="opacity:1" fill="#fafafa" stroke="#333" stroke-width="2" d="M 290,650 C 315,650 330,670 330,700 C 330,730 315,750 290,750 C 265,750 250,730 250,700 C 250,670 265,650 290,650 Z"/>
    <text x="290" y="705" text-anchor="middle" font-size="12" fill="#333">35</text>
  </g>
  
  <!-- Dente 36 -->
  <g id="tooth-36" class="tooth" data-number="36">
    <path style="opacity:1" fill="#fafafa" stroke="#333" stroke-width="2" d="M 350,650 C 380,650 400,670 400,700 C 400,730 380,750 350,750 C 320,750 300,730 300,700 C 300,670 320,650 350,650 Z"/>
    <text x="350" y="705" text-anchor="middle" font-size="12" fill="#333">36</text>
  </g>
  
  <!-- Dente 37 -->
  <g id="tooth-37" class="tooth" data-number="37">
    <path style="opacity:1" fill="#fafafa" stroke="#333" stroke-width="2" d="M 420,650 C 450,650 470,670 470,700 C 470,730 450,750 420,750 C 390,750 370,730 370,700 C 370,670 390,650 420,650 Z"/>
    <text x="420" y="705" text-anchor="middle" font-size="12" fill="#333">37</text>
  </g>
  
  <!-- Dente 38 -->
  <g id="tooth-38" class="tooth" data-number="38">
    <path style="opacity:1" fill="#fafafa" stroke="#333" stroke-width="2" d="M 490,650 C 520,650 540,670 540,700 C 540,730 520,750 490,750 C 460,750 440,730 440,700 C 440,670 460,650 490,650 Z"/>
    <text x="490" y="705" text-anchor="middle" font-size="12" fill="#333">38</text>
  </g>
</svg>